<svg width="21" height="21" viewBox="0 0 21 21" fill="none" xmlns="http://www.w3.org/2000/svg">
<path d="M5 8.16699H8.66667" stroke="white" stroke-width="2" stroke-linecap="round" stroke-linejoin="round"/>
<path d="M18.5969 9.08398H16.2118C14.5755 9.08398 13.25 10.3151 13.25 11.834C13.25 13.3529 14.5764 14.584 16.2108 14.584H18.5969C18.6739 14.584 18.7115 14.584 18.7436 14.5822C19.2386 14.5519 19.6327 14.1862 19.6648 13.7269C19.6667 13.6976 19.6667 13.6618 19.6667 13.5912V10.0767C19.6667 10.0062 19.6667 9.9704 19.6648 9.94107C19.6318 9.48182 19.2386 9.11607 18.7436 9.08582C18.7115 9.08398 18.6739 9.08398 18.5969 9.08398Z" stroke="white" stroke-width="2"/>
<path d="M18.718 9.08333C18.6465 7.36733 18.4173 6.315 17.6757 5.57433C16.6023 4.5 14.8735 4.5 11.4167 4.5H8.66671C5.20996 4.5 3.48112 4.5 2.40771 5.57433C1.33337 6.64775 1.33337 8.37658 1.33337 11.8333C1.33337 15.2901 1.33337 17.0189 2.40771 18.0923C3.48112 19.1667 5.20996 19.1667 8.66671 19.1667H11.4167C14.8735 19.1667 16.6023 19.1667 17.6757 18.0923C18.4173 17.3517 18.6474 16.2993 18.718 14.5833" stroke="white" stroke-width="2"/>
<path d="M5 4.50048L8.42375 2.2299C8.90524 1.91671 9.46728 1.75 10.0417 1.75C10.6161 1.75 11.1781 1.91671 11.6596 2.2299L15.0833 4.50048" stroke="white" stroke-width="2" stroke-linecap="round"/>
<path d="M15.9918 11.834H16.0027" stroke="white" stroke-width="2" stroke-linecap="round" stroke-linejoin="round"/>
</svg>
